<svg width="13" height="18" viewBox="0 0 13 18" fill="none" xmlns="http://www.w3.org/2000/svg">
<path d="M10.5163 6.625H9.125V1.83333C9.125 1.30625 8.73125 0.875 8.25 0.875H4.75C4.26875 0.875 3.875 1.30625 3.875 1.83333V6.625H2.48375C1.705 6.625 1.31125 7.66 1.8625 8.26375L5.87875 12.6625C6.22 13.0363 6.77125 13.0363 7.1125 12.6625L11.1288 8.26375C11.68 7.66 11.295 6.625 10.5163 6.625ZM0.375 16.2083C0.375 16.7354 0.76875 17.1667 1.25 17.1667H11.75C12.2313 17.1667 12.625 16.7354 12.625 16.2083C12.625 15.6812 12.2313 15.25 11.75 15.25H1.25C0.76875 15.25 0.375 15.6812 0.375 16.2083Z" fill="#F8F8F8"/>
</svg>
