<svg width="26" height="28" viewBox="0 0 26 28" fill="none" xmlns="http://www.w3.org/2000/svg">
<path d="M25.0714 21V9C25.0714 9 13.8047 17.4667 12.709 17.906C11.6319 17.4867 0.309509 9 0.309509 9V21C0.309509 22.6667 0.637604 23 2.16665 23H23.2143C24.7798 23 25.0714 22.7073 25.0714 21ZM25.0535 6.64733C25.0535 5.43333 24.7247 5 23.2143 5H2.16665C0.612843 5 0.309509 5.52 0.309509 6.73333L0.328081 6.92C0.328081 6.92 11.5137 15.2133 12.709 15.6667C13.9719 15.14 25.0714 6.73333 25.0714 6.73333L25.0535 6.64733Z" fill="#F8F8F8"/>
</svg>
