<svg width="44" height="44" viewBox="0 0 44 44" fill="none" xmlns="http://www.w3.org/2000/svg">
<g clip-path="url(#clip0_50_9)">
<path d="M44 21.4299C44 18.5149 40.3498 15.752 34.7527 14.0397C36.0452 8.33621 35.4713 3.79687 32.9413 2.34304C32.3283 1.99969 31.6345 1.82687 30.932 1.84254V3.84087C31.3445 3.84087 31.6763 3.92337 31.955 4.07554C33.1742 4.77587 33.704 7.43787 33.2915 10.8644C33.1925 11.7077 33.0312 12.595 32.8332 13.5007C30.9588 13.049 29.0565 12.7226 27.1388 12.5235C25.9964 10.9474 24.75 9.4493 23.408 8.03921C26.3322 5.32221 29.0767 3.83354 30.943 3.83354V1.83337C28.4753 1.83337 25.2468 3.59154 21.9817 6.64037C18.7183 3.61171 15.488 1.87004 13.0222 1.87004V3.86837C14.8793 3.86837 17.633 5.34971 20.5572 8.04837C19.3013 9.36837 18.0455 10.8644 16.852 12.5235C14.9304 12.7204 13.0246 13.05 11.1485 13.5099C10.9413 12.6134 10.7892 11.7444 10.681 10.9102C10.2593 7.48187 10.78 4.81987 11.9918 4.11221C12.2595 3.95087 12.6097 3.87754 13.0222 3.87754V1.87921C12.2705 1.87921 11.5867 2.04054 10.9963 2.37971C8.4755 3.83354 7.91083 8.36187 9.21067 14.0489C3.63183 15.7722 0 18.524 0 21.4299C0 24.3449 3.65017 27.1077 9.24733 28.8182C7.95483 34.5235 8.52867 39.0629 11.0587 40.5149C11.6417 40.8559 12.3237 41.0172 13.0753 41.0172C15.543 41.0172 18.7715 39.259 22.0367 36.2102C25.3 39.2407 28.5285 40.9805 30.9962 40.9805C31.704 40.9955 32.4031 40.8221 33.022 40.4782C35.5428 39.0262 36.1075 34.4979 34.8077 28.8109C40.3682 27.0985 44 24.3357 44 21.4299ZM32.3217 15.4477C31.9733 16.6464 31.5695 17.8284 31.1117 18.9897C30.3621 17.5318 29.5391 16.1128 28.6458 14.7382C29.92 14.927 31.1483 15.1599 32.3235 15.4477H32.3217ZM28.215 24.9994C27.5165 26.2094 26.7978 27.3589 26.0535 28.4259C23.3626 28.663 20.6562 28.6661 17.9648 28.435C16.4211 26.2299 15.071 23.8953 13.9297 21.4574C15.0692 19.0137 16.4136 16.6709 17.9483 14.454C20.6385 14.2164 23.3443 14.2127 26.0352 14.443C26.7795 15.51 27.5073 16.6504 28.2058 17.853C28.8878 19.0264 29.5075 20.218 30.0722 21.4207C29.5012 22.638 28.8817 23.8318 28.215 24.9994ZM31.1117 23.8334C31.5957 25.0342 32.01 26.2369 32.3492 27.4029C31.1758 27.6907 29.9365 27.9327 28.655 28.1197C29.5446 26.7326 30.3645 25.3021 31.1117 23.8334ZM22.0183 33.4034C21.1842 32.5417 20.35 31.5829 19.525 30.5324C20.3317 30.569 21.1567 30.5965 21.9908 30.5965C22.8342 30.5965 23.6683 30.5782 24.4842 30.5324C23.6775 31.5829 22.8433 32.5417 22.0183 33.4034ZM15.345 28.1197C14.1089 27.9406 12.8817 27.7045 11.6673 27.412C11.9992 26.2552 12.4117 25.0617 12.8773 23.87C13.2458 24.585 13.6327 25.3037 14.0543 26.0224C14.476 26.7392 14.905 27.4395 15.345 28.1197ZM21.9725 9.45637C22.8067 10.318 23.6408 11.2769 24.4658 12.3274C23.6592 12.2907 22.8342 12.2632 22 12.2632C21.1567 12.2632 20.3225 12.2815 19.5067 12.3274C20.3133 11.2769 21.1475 10.318 21.9725 9.45637ZM15.3358 14.74C14.4464 16.1241 13.6265 17.5516 12.8792 19.0172C12.4084 17.8484 11.9954 16.6571 11.6417 15.4477C12.815 15.169 14.0543 14.927 15.3358 14.74ZM7.21967 25.9674C4.04433 24.6144 1.991 22.8379 1.991 21.4299C1.991 20.0219 4.04433 18.2362 7.21967 16.8924C7.98967 16.5605 8.833 16.2635 9.70383 15.9867C10.2153 17.743 10.8882 19.5727 11.7205 21.4482C10.9347 23.2122 10.2701 25.0278 9.73133 26.8822C8.87966 26.6185 8.04143 26.3132 7.21967 25.9674ZM12.045 38.7824C10.8258 38.0857 10.296 35.42 10.7085 31.9954C10.8075 31.152 10.9688 30.2629 11.1668 29.3572C12.9232 29.788 14.8427 30.1199 16.8612 30.3362C18.0037 31.9123 19.25 33.4104 20.592 34.8205C17.6678 37.5375 14.9233 39.0262 13.057 39.0262C12.7049 39.0301 12.3573 38.9469 12.045 38.7842V38.7824ZM33.319 31.9495C33.7407 35.376 33.22 38.0399 32.0082 38.7475C31.7405 38.9089 31.3903 38.9804 30.9778 38.9804C29.1207 38.9804 26.367 37.5009 23.4428 34.8004C24.6987 33.484 25.9545 31.9862 27.148 30.327C29.0696 30.1302 30.9754 29.8006 32.8515 29.3407C33.0587 30.2464 33.2182 31.1154 33.319 31.9495ZM36.7712 25.9674C36.0012 26.2992 35.1578 26.5962 34.287 26.873C33.7388 25.0091 33.065 23.1845 32.2703 21.4115C33.0953 19.547 33.7572 17.7265 34.2595 15.9775C35.1487 16.2544 35.9902 16.5605 36.7803 16.8924C39.9557 18.2454 42.009 20.0219 42.009 21.4299C41.9998 22.8379 39.9465 24.6235 36.7712 25.9674Z" fill="#66ECBC"/>
<path d="M21.9908 25.5292C23.0781 25.5292 24.1207 25.0973 24.8895 24.3286C25.6583 23.5598 26.0902 22.5171 26.0902 21.4299C26.0902 20.3427 25.6583 19.3 24.8895 18.5312C24.1207 17.7625 23.0781 17.3306 21.9908 17.3306C20.9036 17.3306 19.861 17.7625 19.0922 18.5312C18.3234 19.3 17.8915 20.3427 17.8915 21.4299C17.8915 22.5171 18.3234 23.5598 19.0922 24.3286C19.861 25.0973 20.9036 25.5292 21.9908 25.5292Z" fill="#66ECBC"/>
</g>
<defs>
<clipPath id="clip0_50_9">
<rect width="44" height="44" fill="white"/>
</clipPath>
</defs>
</svg>
