<svg width="44" height="44" viewBox="0 0 44 44" fill="none" xmlns="http://www.w3.org/2000/svg">
<g clip-path="url(#clip0_50_16)">
<path d="M23 43.9193C22.373 43.9193 21.79 43.7561 21.2455 43.4738L15.6923 40.2875C14.8582 39.8438 15.2762 39.6825 15.5273 39.6018C16.653 39.2388 16.862 39.1581 18.0317 38.511C18.1563 38.4303 18.325 38.4706 18.4497 38.5513L22.7085 41.0135C22.8735 41.0941 23.0843 41.0941 23.209 41.0135L39.8685 31.6928C40.0335 31.6121 40.1178 31.4508 40.1178 31.2491V12.6481C40.1178 12.4465 40.0353 12.2851 39.8685 12.2045L23.209 2.92595C23.0422 2.84529 22.8332 2.84529 22.7085 2.92595L6.04901 12.2045C5.88218 12.2851 5.79784 12.4868 5.79784 12.6481V31.2491C5.79784 31.4105 5.88218 31.6121 6.04901 31.6928L10.5993 34.2356C13.0633 35.4456 14.607 34.034 14.607 32.6223V14.2633C14.607 14.0213 14.816 13.7793 15.1093 13.7793H17.2378C17.489 13.7793 17.7383 13.981 17.7383 14.2633V32.6205C17.7383 35.8086 15.9435 37.664 12.8122 37.664C11.8515 37.664 11.0998 37.664 8.97134 36.6556L4.58784 34.2356C4.05963 33.9452 3.61853 33.519 3.3101 33.001C3.00166 32.4831 2.83708 31.8923 2.83334 31.2895V12.6885C2.83334 11.4785 3.50068 10.3491 4.58784 9.74412L21.2473 0.421622C21.7897 0.143479 22.3905 -0.00158691 23 -0.00158691C23.6095 -0.00158691 24.2103 0.143479 24.7527 0.421622L41.414 9.74229C42.4993 10.3473 43.1667 11.4766 43.1667 12.6866V31.2876C43.1667 32.4976 42.4993 33.627 41.414 34.2338L24.7527 43.5526C24.1995 43.7924 23.6029 43.916 23 43.9156V43.9193ZM28.1352 31.1281C20.8293 31.1281 19.326 27.9015 19.326 25.157C19.326 24.915 19.535 24.673 19.8265 24.673H21.9972C22.2483 24.673 22.4555 24.8343 22.4555 25.0763C22.791 27.214 23.7517 28.2626 28.1773 28.2626C31.6845 28.2626 33.1878 27.4963 33.1878 25.6813C33.1878 24.6326 32.7698 23.8663 27.301 23.342C22.7488 22.8965 19.9108 21.9303 19.9108 18.4195C19.9108 15.1506 22.7488 13.2128 27.51 13.2128C32.8542 13.2128 35.485 14.9893 35.8187 18.8631C35.815 18.9943 35.7708 19.1211 35.6922 19.2261C35.6097 19.3068 35.485 19.3875 35.3585 19.3875H33.1878C33.0824 19.3849 32.9806 19.3481 32.898 19.2826C32.8153 19.2171 32.7561 19.1265 32.7295 19.0245C32.2272 16.8061 30.9328 16.0783 27.51 16.0783C23.6673 16.0783 23.209 17.369 23.209 18.337C23.209 19.5085 23.7517 19.8715 28.929 20.5168C34.0642 21.1621 36.486 22.0898 36.486 25.5585C36.4438 29.1115 33.439 31.1281 28.1352 31.1281Z" fill="#66ECBC"/>
</g>
<defs>
<clipPath id="clip0_50_16">
<rect width="44" height="44" fill="white"/>
</clipPath>
</defs>
</svg>
