<svg width="44" height="44" viewBox="0 0 44 44" fill="none" xmlns="http://www.w3.org/2000/svg">
<g clip-path="url(#clip0_53_24)">
<path d="M44 34.0779C43.3596 34.3201 42.6527 34.3196 42.0127 34.0764C41.3727 33.8332 40.8438 33.3642 40.5258 32.7579L34.2008 24.011L33.2842 22.7882L25.9453 32.7689C25.6465 33.3498 25.1463 33.8019 24.5382 34.0408C23.9302 34.2797 23.256 34.289 22.6417 34.0669L32.098 21.3802L23.3017 9.92005C23.9342 9.69212 24.6259 9.68909 25.2603 9.91149C25.8948 10.1339 26.4332 10.5681 26.785 11.141L33.341 19.996L39.9337 11.1777C40.2348 10.6072 40.7352 10.1672 41.3395 9.94137C41.9439 9.71557 42.6102 9.71973 43.2117 9.95305L39.798 14.4832L35.1743 20.502C35.0459 20.6166 34.9432 20.757 34.8728 20.914C34.8025 21.071 34.7661 21.2411 34.7661 21.4132C34.7661 21.5853 34.8025 21.7554 34.8728 21.9124C34.9432 22.0695 35.0459 22.2098 35.1743 22.3244L43.9817 34.0797L44 34.0779ZM0.00365814 21.2225L0.773658 17.4184C2.88932 9.89621 11.5133 6.76671 17.446 11.4234C20.9202 14.1532 21.7873 18.0179 21.6168 22.3739H2.04599C1.72883 30.1527 7.34249 34.8497 14.52 32.4499C15.6835 32.0311 16.725 31.3302 17.5511 30.41C18.3773 29.4898 18.9622 28.379 19.2537 27.1772C19.6332 25.9562 20.2583 25.7472 21.406 26.0992C21.2147 27.5886 20.6883 29.0152 19.8661 30.2717C19.044 31.5283 17.9476 32.582 16.6595 33.3537C14.5318 34.5176 12.0905 34.9789 9.6848 34.6716C7.2791 34.3644 5.03212 33.3044 3.26516 31.6432C1.51805 29.6768 0.462131 27.1928 0.258491 24.5702C0.258491 24.1394 0.111825 23.736 0.0128248 23.3492C0.0039002 22.641 -0.000377672 21.9327 -8.5244e-06 21.2244L0.00365814 21.2225ZM2.06982 20.6982H19.7688C19.6588 15.0589 16.1003 11.0585 11.3538 11.0219C6.07016 10.9485 2.28982 14.8609 2.05699 20.6725L2.06982 20.6982Z" fill="#66ECBC"/>
</g>
<defs>
<clipPath id="clip0_53_24">
<rect width="44" height="44" fill="white"/>
</clipPath>
</defs>
</svg>
