<svg width="44" height="44" viewBox="0 0 44 44" fill="none" xmlns="http://www.w3.org/2000/svg">
<g clip-path="url(#clip0_50_22)">
<path d="M43.1695 20.0392L23.958 0.830481C23.695 0.567311 23.3826 0.358545 23.0389 0.216111C22.6952 0.0736774 22.3267 0.000366211 21.9546 0.000366211C21.5825 0.000366211 21.2141 0.0736774 20.8704 0.216111C20.5266 0.358545 20.2143 0.567311 19.9512 0.830481L15.9637 4.81798L21.0237 9.87798C21.6205 9.67423 22.2625 9.64236 22.8765 9.78599C23.4906 9.92963 24.0518 10.243 24.4963 10.6903C24.9407 11.1376 25.2505 11.7009 25.3902 12.3158C25.5298 12.9307 25.4938 13.5725 25.2863 14.168L30.162 19.0465C30.8834 18.7925 31.6697 18.7917 32.3916 19.0443C33.1134 19.2969 33.7277 19.7877 34.1334 20.4361C34.539 21.0844 34.7118 21.8515 34.6233 22.6111C34.5347 23.3708 34.1901 24.0776 33.6463 24.6152C33.0957 25.1692 32.3698 25.5148 31.5927 25.5931C30.8156 25.6713 30.0354 25.4773 29.3854 25.0442C28.7355 24.6111 28.256 23.9658 28.029 23.2185C27.802 22.4711 27.8415 21.6682 28.1407 20.9467L23.595 16.3982V28.369C24.286 28.711 24.8388 29.2795 25.1614 29.9797C25.4841 30.68 25.5569 31.4696 25.3679 32.2171C25.1789 32.9645 24.7395 33.6246 24.1228 34.0873C23.5061 34.55 22.7495 34.7874 21.979 34.7599C21.2085 34.7324 20.4707 34.4416 19.8886 33.9361C19.3065 33.4306 18.9153 32.7408 18.7801 31.9818C18.6449 31.2228 18.7739 30.4403 19.1456 29.7649C19.5174 29.0895 20.1094 28.5618 20.823 28.27V16.1892C20.4113 16.0205 20.0371 15.772 19.7218 15.458C19.4066 15.144 19.1567 14.7707 18.9864 14.3596C18.8162 13.9485 18.729 13.5078 18.7299 13.0629C18.7307 12.618 18.8196 12.1776 18.9915 11.7672L14.0057 6.77873L0.83325 19.9512C0.57008 20.2143 0.361314 20.5266 0.21888 20.8703C0.0764459 21.2141 0.00313473 21.5825 0.00313473 21.9546C0.00313473 22.3267 0.0764459 22.6951 0.21888 23.0389C0.361314 23.3826 0.57008 23.6949 0.83325 23.958L20.0447 43.1695C20.3078 43.4327 20.6201 43.6414 20.9639 43.7839C21.3076 43.9263 21.676 43.9996 22.0481 43.9996C22.4202 43.9996 22.7887 43.9263 23.1324 43.7839C23.4761 43.6414 23.7885 43.4327 24.0515 43.1695L43.1723 24.0487C43.7031 23.5171 44.0012 22.7966 44.0012 22.0454C44.0012 21.2941 43.7031 20.5736 43.1723 20.042" fill="#66ECBC"/>
</g>
<defs>
<clipPath id="clip0_50_22">
<rect width="44" height="44" fill="white"/>
</clipPath>
</defs>
</svg>
