<svg width="39" height="44" viewBox="0 0 39 44" fill="none" xmlns="http://www.w3.org/2000/svg">
<g clip-path="url(#clip0_91_4)">
<path d="M38.5 6.28573V10.2143C38.5 13.6764 29.8776 16.5 19.25 16.5C8.62237 16.5 0 13.6764 0 10.2143V6.28573C0 2.82365 8.62237 0 19.25 0C29.8776 0 38.5 2.82365 38.5 6.28573ZM38.5 15.125V23.9643C38.5 27.4264 29.8776 30.25 19.25 30.25C8.62237 30.25 0 27.4264 0 23.9643V15.125C4.13574 17.9732 11.7054 19.2992 19.25 19.2992C26.7946 19.2992 34.3642 17.9732 38.5 15.125ZM38.5 28.875V37.7143C38.5 41.1764 29.8776 44 19.25 44C8.62237 44 0 41.1764 0 37.7143V28.875C4.13574 31.7232 11.7054 33.0492 19.25 33.0492C26.7946 33.0492 34.3642 31.7232 38.5 28.875Z" fill="#66ECBC"/>
</g>
<defs>
<clipPath id="clip0_91_4">
<rect width="38.5" height="44" fill="white"/>
</clipPath>
</defs>
</svg>
