<svg width="44" height="44" viewBox="0 0 44 44" fill="none" xmlns="http://www.w3.org/2000/svg">
<path d="M22 0C34.1 0 44 9.9 44 22C44 34.1 34.1 44 22 44C9.9 44 0 34.1 0 22C0 9.9 9.9 0 22 0ZM17.6 29.2875C17.875 30.525 17.875 31.625 17.6 32.5875L17.4625 33C17.4625 33.1375 17.325 33.275 17.325 33.275C17.05 33.825 16.775 34.2375 16.3625 34.7875C15.125 36.1625 13.3375 36.7125 12.5125 36.3C11.6875 35.8875 12.1 33.825 13.6125 32.3125C15.2625 30.6625 17.4625 29.5625 17.4625 29.5625L17.6 29.2875ZM35.75 9.35C34.7875 5.5 28.325 4.125 22.1375 6.325C18.5625 7.7 14.575 9.7625 11.6875 12.375C8.25 15.5375 7.8375 18.2875 7.975 19.3875C8.8 23.375 14.3 26.125 16.6375 28.05C15.95 28.325 11 30.8 9.9 33.4125C8.6625 36.1625 10.0375 38.0875 11 38.225C13.8875 39.05 16.9125 37.5375 18.425 35.2C19.9375 32.8625 19.8 29.975 19.1125 28.4625C20.1821 28.1322 21.3191 28.0848 22.4125 28.325C26.2625 28.7375 27.0875 31.2125 26.8125 32.175C26.5375 33.1375 25.85 33.6875 25.575 33.9625C25.3 34.1 25.1625 34.2375 25.3 34.2375C25.3 34.375 25.4375 34.375 25.7125 34.375C25.9875 34.375 27.775 33.55 27.775 31.625C27.9125 29.2875 25.575 26.675 21.5875 26.675C19.9375 26.675 18.8375 26.8125 18.15 27.0875C18.15 26.95 18.0125 26.95 18.0125 26.95C15.5375 24.3375 11 22.4125 11.1375 18.8375C11.1375 17.6 11.6875 14.1625 19.9375 10.0375C26.675 6.6 32.175 7.5625 33.1375 9.625C34.5125 12.5125 30.25 18.0125 23.2375 18.8375C20.4875 19.1125 19.1125 18.15 18.8375 17.7375C18.425 17.325 18.425 17.325 18.2875 17.325C18.0125 17.4625 18.15 17.7375 18.2875 18.0125C18.5625 18.5625 19.3875 19.525 20.9 20.075C22.1375 20.4875 25.3 20.7625 29.15 19.25C33.4125 17.6 36.7125 13.0625 35.75 9.2125V9.35Z" fill="#66ECBC"/>
</svg>
