<?xml version="1.0" standalone="no"?>
<!DOCTYPE svg PUBLIC "-//W3C//DTD SVG 20010904//EN"
 "http://www.w3.org/TR/2001/REC-SVG-20010904/DTD/svg10.dtd">
<svg  version="1.0" xmlns="http://www.w3.org/2000/svg"
 width="60" height="60" viewBox="0 0 300.000000 549.000000" fill="none"
>
<metadata>
Created by potrace 1.10, written by Peter Selinger 2001-2011
</metadata>
<g transform="translate(0.000000,549.000000) scale(0.100000,-0.100000)"
fill-rule="evenodd" fill="#66ECBC" stroke="none">
<path d="M1884 5430 c4 -14 10 -68 13 -120 8 -148 -29 -261 -131 -397 -60 -79
-129 -143 -339 -311 -199 -158 -291 -247 -346 -332 -94 -146 -72 -288 76 -490
53 -71 351 -375 360 -367 6 7 -41 84 -148 242 -119 177 -144 239 -144 360 0
81 3 97 32 155 46 94 124 182 259 295 266 221 402 399 450 587 33 127 4 288
-67 376 l-22 27 7 -25z m67 -264 c2 -117 -28 -200 -129 -356 -42 -65 -236
-260 -342 -344 -113 -89 -210 -206 -259 -310 -19 -41 -23 -65 -22 -147 1 -130
16 -168 133 -344 37 -55 65 -102 62 -104 -8 -9 -114 112 -107 122 3 6 2 7 -4
4 -12 -7 -52 35 -114 118 -114 153 -143 297 -84 420 38 79 179 225 321 332 39
29 102 78 142 111 52 42 252 237 252 246 0 4 8 16 19 27 22 24 63 106 85 172
9 27 16 83 17 130 l0 82 15 -39 c8 -21 15 -75 15 -120z"/>
<path d="M2220 4654 c-218 -75 -440 -197 -547 -301 -105 -103 -153 -204 -153
-322 1 -112 45 -211 164 -364 88 -113 87 -226 -5 -330 -21 -25 -39 -48 -39
-51 0 -4 28 12 63 35 125 85 214 199 233 298 12 63 -13 133 -85 238 -88 127
-112 174 -118 238 -14 136 133 296 457 497 69 43 132 82 140 87 29 19 -6 11
-110 -25z m-100 -72 c0 -4 -18 -19 -40 -32 -173 -106 -330 -263 -366 -366 -31
-89 -4 -169 112 -334 30 -43 54 -82 54 -88 0 -6 5 -12 12 -14 7 -3 14 -32 16
-75 4 -65 1 -77 -27 -130 -27 -51 -118 -159 -127 -150 -2 1 1 20 6 42 13 55
12 115 -2 156 -6 19 -42 75 -80 126 -38 51 -81 118 -96 150 -24 52 -27 69 -27
168 0 94 3 117 22 155 36 72 136 174 231 236 48 31 104 68 124 82 21 13 44 22
53 18 9 -3 13 -2 10 4 -3 6 0 10 7 11 7 0 33 11 58 24 51 26 60 29 60 17z"/>
<path d="M2449 3425 c-25 -8 -54 -24 -65 -36 -19 -22 -19 -22 1 -15 11 4 41
12 67 17 93 20 210 -38 249 -125 44 -96 12 -201 -94 -313 -68 -71 -184 -156
-274 -202 -66 -33 -51 -42 30 -17 321 100 510 266 510 446 0 99 -54 179 -156
232 -54 28 -199 35 -268 13z m251 -33 c177 -80 201 -271 53 -420 -26 -26 -68
-62 -93 -78 -54 -37 -180 -98 -187 -91 -2 3 5 11 18 17 27 15 76 58 136 120
103 106 142 239 97 330 -26 53 -73 99 -129 129 l-40 21 55 -6 c30 -3 71 -13
90 -22z"/>
<path d="M880 3390 c-108 -19 -279 -74 -359 -115 -55 -27 -86 -59 -78 -79 14
-35 146 -77 287 -91 36 -4 76 -9 90 -11 70 -12 512 -16 670 -5 377 26 574 61
712 129 99 48 123 67 66 52 -81 -22 -420 -63 -657 -80 -208 -15 -645 -15 -751
0 -179 25 -196 63 -56 125 32 14 109 40 170 57 61 17 113 32 115 34 11 10
-116 0 -209 -16z m-123 -72 c-41 -21 -72 -61 -64 -82 9 -24 51 -46 114 -62 98
-24 459 -29 755 -10 141 10 267 19 280 21 13 2 69 9 126 14 56 6 121 13 145
17 86 11 10 -15 -114 -40 -137 -28 -318 -51 -479 -61 -152 -10 -587 -7 -715 5
-194 19 -330 55 -330 89 0 18 97 68 210 107 95 33 133 34 72 2z"/>
<path d="M860 2959 c-144 -66 -159 -134 -43 -193 41 -21 178 -53 279 -66 89
-12 403 -14 515 -5 156 14 398 57 524 94 l30 9 -35 15 c-19 8 -54 29 -78 47
l-43 31 -162 -25 c-304 -48 -608 -53 -851 -16 -104 16 -133 56 -79 112 34 35
24 35 -57 -3z m60 -111 c36 -17 59 -21 220 -38 200 -21 462 -8 751 37 l105 16
47 -27 c26 -16 47 -29 47 -31 0 -4 -178 -43 -275 -59 -124 -21 -171 -25 -395
-32 -297 -10 -548 31 -636 101 -28 23 -28 25 -14 51 8 15 30 35 49 45 l34 18
16 -32 c9 -18 32 -39 51 -49z"/>
<path d="M955 2559 c-62 -24 -116 -78 -108 -108 16 -61 147 -123 328 -157 123
-23 404 -23 535 0 172 30 415 103 380 114 -8 2 -57 25 -108 49 l-93 45 -132
-21 c-187 -29 -329 -35 -497 -22 -172 15 -232 26 -262 51 l-23 18 24 26 c29
31 23 31 -44 5z m18 -53 c10 -14 37 -31 64 -40 132 -43 520 -47 734 -7 l117
22 72 -40 72 -39 -69 -23 c-80 -27 -63 -23 -188 -49 -131 -27 -384 -37 -525
-21 -128 15 -205 34 -284 70 -103 47 -120 86 -57 128 42 29 45 29 64 -1z"/>
<path d="M461 2285 c-164 -43 -321 -135 -321 -189 0 -24 59 -65 113 -80 61
-18 280 -49 492 -72 202 -21 764 -30 970 -15 313 22 580 67 763 127 120 39
178 70 215 114 30 35 26 62 -13 90 -37 26 -44 25 -25 -4 68 -103 -253 -188
-845 -225 -221 -14 -859 -6 -1015 13 -280 33 -428 80 -410 128 14 37 180 101
295 114 84 9 57 24 -45 23 -51 0 -114 -9 -174 -24z m-1 -30 c0 -2 -15 -12 -32
-21 -38 -19 -67 -52 -68 -76 0 -24 55 -66 98 -74 20 -4 44 -10 53 -15 21 -11
252 -47 349 -54 267 -21 718 -27 890 -11 30 3 98 8 150 11 52 3 142 10 200 16
101 10 130 14 283 40 37 6 70 9 73 6 4 -4 -120 -37 -199 -53 -10 -2 -26 -6
-35 -8 -36 -12 -288 -46 -419 -58 -172 -15 -813 -15 -943 0 -52 6 -127 14
-165 17 -39 3 -92 10 -118 15 -26 6 -67 10 -90 10 -77 1 -278 47 -300 69 -19
19 -19 23 -6 47 22 43 94 84 234 132 36 12 45 13 45 7z"/>
<path d="M2836 2054 c-127 -110 -579 -211 -1091 -244 -309 -20 -710 -9 -979
26 -65 8 -121 13 -123 10 -8 -8 127 -46 217 -61 153 -26 281 -35 560 -41 683
-16 1218 73 1389 230 37 35 79 102 69 111 -2 2 -20 -12 -42 -31z m-61 -76
c-11 -6 -22 -15 -25 -19 -9 -13 -133 -67 -205 -88 -63 -18 -250 -56 -329 -66
-100 -13 -234 -25 -321 -29 -308 -15 -431 -16 -445 -7 -11 8 22 11 115 11 191
1 454 22 575 45 13 2 60 9 104 15 143 19 466 105 509 135 12 8 26 15 32 15 5
0 1 -6 -10 -12z m-1532 -205 c-7 -2 -19 -2 -25 0 -7 3 -2 5 12 5 14 0 19 -2
13 -5z m70 0 c-7 -2 -19 -2 -25 0 -7 3 -2 5 12 5 14 0 19 -2 13 -5z"/>
<path d="M245 937 c0 -426 -3 -572 -13 -604 -17 -56 -67 -121 -123 -159 l-46
-30 46 -52 46 -51 50 27 c76 42 114 73 151 123 71 97 68 70 74 722 l5 587 -95
0 -95 0 0 -563z m163 13 c2 -542 -2 -621 -37 -694 -38 -78 -164 -182 -212
-174 -11 2 -28 15 -37 31 l-17 27 52 45 c32 28 63 68 80 103 l28 57 3 555 c1
305 4 560 6 565 2 6 32 10 67 10 l64 0 3 -525z"/>
<path d="M834 1209 c-38 -4 -107 -20 -153 -34 -66 -21 -81 -29 -77 -43 3 -9 8
-34 12 -54 3 -21 8 -38 11 -38 3 0 41 9 85 20 99 26 224 28 268 5 48 -25 70
-70 70 -141 l0 -61 -107 -6 c-190 -10 -306 -66 -358 -171 -24 -49 -27 -65 -24
-135 4 -69 8 -85 34 -122 47 -67 110 -94 215 -94 71 0 95 5 142 27 32 15 74
39 93 54 l35 26 0 -30 c0 -57 6 -62 82 -62 l69 0 -3 343 c-3 311 -5 345 -22
377 -44 84 -106 124 -213 140 -37 5 -72 9 -78 9 -5 -1 -42 -5 -81 -10z m246
-43 c48 -25 79 -54 101 -98 18 -34 19 -62 19 -366 l0 -329 -42 2 c-37 2 -43 5
-52 33 -18 53 -31 58 -68 30 -110 -82 -240 -103 -348 -56 -137 60 -147 279
-17 374 70 52 120 66 252 71 77 3 125 10 133 18 15 13 18 81 7 144 -7 45 -53
93 -104 110 -50 16 -135 13 -226 -8 -86 -21 -109 -16 -103 22 3 22 74 51 163
67 82 14 244 6 285 -14z"/>
<path d="M861 759 c-100 -19 -157 -90 -149 -181 13 -128 131 -172 272 -103 81
41 89 55 87 172 -1 53 -7 103 -13 110 -12 15 -126 16 -197 2z m189 -113 l0
-104 -49 -31 c-67 -44 -144 -59 -193 -38 -50 21 -72 58 -72 122 0 108 70 149
262 154 l52 1 0 -104z"/>
<path d="M2415 1209 c-38 -4 -107 -20 -151 -34 l-82 -27 13 -50 c8 -27 16 -52
18 -54 2 -2 39 5 83 16 147 38 285 23 317 -34 6 -11 14 -53 17 -92 l5 -71
-105 -6 c-170 -10 -258 -43 -328 -122 -79 -90 -84 -237 -10 -321 91 -103 271
-110 410 -15 l56 39 7 -44 6 -44 70 0 70 0 -3 348 -3 347 -28 47 c-45 77 -109
111 -227 120 -36 3 -96 2 -135 -3z m261 -55 c42 -22 65 -42 81 -70 24 -44 26
-65 24 -467 l-1 -248 -42 4 c-38 3 -44 8 -54 35 -15 48 -30 59 -51 40 -29 -26
-116 -74 -148 -82 -50 -13 -161 -8 -202 9 -44 19 -79 49 -99 87 -22 42 -18
170 6 217 51 102 174 151 373 151 88 0 87 -1 87 103 0 120 -40 162 -167 173
-62 5 -140 -5 -230 -32 -18 -5 -25 -1 -32 17 -14 40 -2 51 69 65 8 2 33 7 55
13 22 6 49 12 60 15 11 2 63 4 116 3 85 -2 102 -5 155 -33z"/>
<path d="M2455 763 c-115 -26 -155 -69 -155 -169 0 -94 55 -154 144 -154 52 0
141 37 181 75 l36 33 -2 101 c-1 87 -4 103 -20 111 -17 10 -145 12 -184 3z
m175 -120 l-5 -108 -53 -32 c-135 -80 -252 -38 -252 90 0 109 72 151 260 156
l55 1 -5 -107z"/>
<path d="M1332 1185 c2 -8 59 -199 128 -424 l125 -411 111 0 111 0 31 73 c82
190 158 430 201 632 12 55 23 110 26 123 5 22 4 22 -88 22 l-94 0 -17 -104
c-21 -129 -54 -261 -108 -440 l-42 -139 -17 79 c-10 43 -54 195 -98 338 -45
142 -81 260 -81 262 0 2 -43 4 -96 4 -78 0 -95 -3 -92 -15z m702 -54 c-15 -82
-85 -343 -119 -446 -46 -135 -113 -297 -129 -308 -6 -4 -49 -6 -95 -5 l-84 3
-18 50 c-10 28 -34 104 -54 170 -20 66 -56 185 -81 265 -25 80 -54 173 -64
206 -10 34 -21 71 -25 83 -6 20 -3 21 65 21 64 0 71 -2 80 -22 16 -41 138
-441 160 -528 41 -163 60 -147 136 117 33 117 94 392 94 428 0 7 54 10 98 6
l43 -3 -7 -37z"/>
<path d="M2820 1190 c0 -5 5 -10 10 -10 6 0 10 -11 10 -25 0 -14 5 -25 10 -25
6 0 10 14 10 31 0 17 4 28 10 24 6 -3 10 -1 10 4 0 6 -13 11 -30 11 -16 0 -30
-4 -30 -10z"/>
<path d="M2890 1166 c0 -20 5 -36 11 -36 7 0 9 10 5 28 -5 21 -4 24 4 12 9
-13 11 -12 8 4 -6 37 -28 30 -28 -8z"/>
<path d="M2940 1178 c0 -19 2 -20 10 -8 8 11 9 8 4 -12 -4 -18 -2 -28 5 -28 6
0 11 16 11 35 0 24 -5 35 -15 35 -9 0 -15 -9 -15 -22z"/>
<path d="M2920 1145 c0 -8 5 -15 10 -15 6 0 10 7 10 15 0 8 -4 15 -10 15 -5 0
-10 -7 -10 -15z"/>
</g>
</svg>
