<?xml version="1.0" standalone="no"?>
<!DOCTYPE svg PUBLIC "-//W3C//DTD SVG 20010904//EN"
 "http://www.w3.org/TR/2001/REC-SVG-20010904/DTD/svg10.dtd">
<svg version="1.0" xmlns="http://www.w3.org/2000/svg"
width="60" height="60" viewBox="0 0 300.000000 300.000000"
 preserveAspectRatio="xMidYMid meet">
<metadata>
Created by potrace 1.10, written by Peter Selinger 2001-2011
</metadata>
<g transform="translate(0.000000,300.000000) scale(0.100000,-0.100000)"
fill="#66ecbc" stroke="none">
<path d="M1173 2975 c-192 -35 -324 -109 -372 -209 -19 -38 -21 -61 -21 -245
l0 -202 365 3 365 3 0 -52 0 -52 -573 -3 -572 -3 -65 -32 c-90 -44 -162 -119
-211 -218 -49 -100 -69 -176 -74 -285 l-5 -85 16 60 c9 33 24 95 35 138 42
175 136 309 256 365 l58 27 562 3 562 3 21 26 c25 32 26 83 2 113 -18 23 -20
23 -353 27 -184 2 -340 6 -346 8 -10 3 -13 48 -13 176 0 206 5 221 95 298 63
53 148 81 420 135 l70 14 -75 0 c-41 0 -107 -6 -147 -13z"/>
<path d="M1685 2970 c320 -73 424 -124 488 -245 22 -39 22 -49 22 -465 0 -413
-1 -426 -21 -471 -30 -64 -88 -126 -147 -156 -100 -50 -128 -53 -560 -53 -221
0 -428 -4 -461 -10 -132 -21 -245 -102 -300 -216 -43 -87 -56 -169 -56 -359 0
-93 -4 -176 -9 -184 -6 -10 -40 -14 -132 -15 -162 -1 -209 15 -295 99 -61 60
-134 187 -134 232 0 11 -3 23 -8 27 -4 4 -19 64 -33 134 -25 116 -27 122 -28
72 -3 -173 74 -386 177 -493 20 -21 66 -52 102 -70 63 -31 67 -32 227 -35
l163 -4 0 199 c0 226 12 301 61 393 56 106 148 168 279 189 37 6 238 11 470
11 428 0 458 3 547 49 90 45 149 116 177 211 13 45 16 119 16 465 l0 411 -26
52 c-68 138 -272 237 -509 247 l-100 5 90 -20z"/>
<path d="M1035 2785 c-100 -36 -136 -165 -68 -246 72 -85 207 -76 260 17 50
86 14 192 -76 230 -41 17 -65 17 -116 -1z m110 -29 c45 -19 75 -69 75 -125 0
-37 -6 -49 -39 -82 -33 -34 -45 -39 -83 -39 -60 0 -109 33 -127 86 -17 48 -10
82 26 124 42 51 86 61 148 36z"/>
<path d="M2330 2063 c0 -298 -22 -386 -124 -489 -44 -45 -77 -68 -121 -85 -59
-23 -67 -23 -530 -29 -460 -5 -471 -6 -527 -28 -126 -50 -201 -126 -233 -234
-20 -69 -23 -843 -3 -900 33 -94 131 -181 254 -227 72 -28 240 -61 288 -58 71
5 51 24 -32 31 -97 8 -214 38 -298 76 -66 30 -164 116 -164 145 0 8 -4 15 -9
15 -26 0 -32 95 -29 490 l3 405 29 55 c28 54 92 130 109 130 5 0 15 6 23 14
14 15 106 45 159 53 17 2 41 7 55 11 27 8 59 8 525 3 310 -3 322 -3 378 18
116 45 208 145 248 271 18 54 23 101 28 275 l6 210 145 -3 c141 -2 230 -19
230 -43 0 -5 6 -9 14 -9 25 0 108 -103 142 -175 17 -38 40 -101 49 -140 24
-101 25 -104 36 -76 21 53 -60 260 -137 349 -84 98 -182 132 -381 132 l-133 0
0 -187z"/>
<path d="M2951 1198 c-18 -92 -82 -219 -139 -274 -26 -26 -76 -61 -112 -78
l-65 -31 -555 -3 c-305 -1 -562 -5 -570 -8 -45 -18 72 -23 556 -23 504 -1 535
0 596 19 98 30 171 89 238 192 57 88 104 255 75 265 -6 2 -17 -25 -24 -59z"/>
<path d="M1480 730 c0 -27 4 -50 9 -50 13 0 24 55 16 80 -12 37 -25 21 -25
-30z"/>
<path d="M1507 674 c-20 -20 36 -24 349 -24 l344 0 0 -185 c0 -214 -6 -236
-84 -299 -70 -58 -261 -118 -411 -128 -22 -2 -39 -7 -37 -13 4 -16 135 -7 229
15 154 36 259 100 311 188 27 46 27 49 30 250 l3 202 -364 0 c-200 0 -367 -3
-370 -6z"/>
<path d="M1844 501 c-74 -45 -101 -128 -65 -198 65 -129 232 -120 288 15 27
64 -9 152 -77 187 -40 21 -109 19 -146 -4z m161 -44 c61 -61 53 -154 -17 -197
-63 -38 -134 -22 -176 40 -35 52 -26 113 22 157 31 28 43 33 87 33 44 0 55 -4
84 -33z"/>
</g>
</svg>
