<?xml version="1.0" standalone="no"?>
<!DOCTYPE svg PUBLIC "-//W3C//DTD SVG 20010904//EN"
 "http://www.w3.org/TR/2001/REC-SVG-20010904/DTD/svg10.dtd">
<svg version="1.0" xmlns="http://www.w3.org/2000/svg"
width="60" height="60" viewBox="0 0 225.000000 225.000000"
 preserveAspectRatio="xMidYMid meet">
<metadata>
Created by potrace 1.10, written by Peter Selinger 2001-2011
</metadata>
<g transform="translate(0.000000,225.000000) scale(0.050000,-0.050000)"
fill="#66ecbc" stroke="none">
<path d="M2280 3761 l0 -141 151 0 151 0 -6 135 -6 135 -145 6 -145 6 0 -141z"/>
<path d="M1560 3419 l0 -141 145 6 145 6 6 135 6 135 -151 0 -151 0 0 -141z"/>
<path d="M1920 3420 l0 -140 145 5 145 5 6 135 6 135 -151 0 -151 0 0 -140z"/>
<path d="M2280 3419 l0 -141 145 6 145 6 6 135 6 135 -151 0 -151 0 0 -141z"/>
<path d="M3176 3385 c-58 -130 -68 -258 -28 -354 53 -125 92 -120 -1073 -127
-1197 -6 -1115 7 -1115 -173 0 -639 370 -954 1087 -925 630 25 1048 287 1299
815 l83 175 106 9 c169 14 389 208 324 286 -32 39 -192 75 -285 64 l-87 -9
-33 95 c-32 90 -166 239 -215 239 -12 0 -40 -43 -63 -95z m247 -358 c30 -35
28 -41 -35 -99 -63 -58 -68 -59 -68 -20 -1 35 -4 37 -22 12 -17 -24 -19 -22
-7 10 8 22 19 69 24 105 10 70 41 67 108 -8z m-201 -286 c-16 -11 -79 -125
-86 -156 -2 -8 -20 -32 -40 -54 -20 -21 -36 -46 -36 -55 0 -9 -16 -33 -35 -55
-19 -21 -53 -61 -75 -90 -22 -28 -47 -51 -56 -51 -9 0 -38 -25 -64 -56 -26
-31 -86 -69 -134 -84 -47 -15 -95 -33 -106 -41 -147 -99 -650 -147 -920 -87
-77 17 -150 33 -163 35 -13 3 -37 16 -54 31 -17 14 -41 19 -53 12 -11 -7 -19
-1 -15 14 3 14 -6 24 -20 21 -14 -3 -25 9 -25 25 0 16 -11 28 -25 25 -14 -3
-23 6 -20 20 3 14 -4 25 -15 25 -11 0 -20 13 -20 28 0 16 -7 32 -15 35 -22 10
-85 220 -85 284 0 29 -9 53 -21 53 -14 0 -14 13 1 40 13 23 42 40 71 40 27 0
49 7 49 16 0 9 56 10 124 2 69 -8 140 -7 159 3 18 10 239 14 500 9 1019 -22
1117 -19 1085 34 -8 12 -6 17 5 10 10 -6 32 -3 47 6 31 19 71 -20 42 -39z"/>
<path d="M1208 3222 c-4 -5 -8 -66 -8 -135 l0 -127 150 0 150 0 0 128 0 129
-142 6 c-78 4 -145 3 -150 -1z"/>
<path d="M2775 3224 l-135 -6 0 -129 0 -129 150 0 150 0 0 129 c0 150 9 143
-165 135z"/>
<path d="M1560 3090 l0 -130 150 0 150 0 0 130 0 130 -150 0 -150 0 0 -130z"/>
<path d="M1920 3090 l0 -130 150 0 150 0 0 130 0 130 -150 0 -150 0 0 -130z"/>
<path d="M2280 3090 l0 -130 150 0 150 0 0 130 0 130 -150 0 -150 0 0 -130z"/>
<path d="M874 1528 c-8 -8 -14 -85 -14 -171 0 -86 -5 -157 -11 -157 -6 0 -39
15 -73 32 -189 98 -436 -71 -436 -298 0 -334 435 -444 599 -151 63 112 54 744
-10 753 -22 3 -47 -1 -55 -8z m-117 -417 c155 -80 127 -313 -44 -370 -218 -72
-359 258 -157 368 69 38 132 38 201 2z"/>
<path d="M2393 1509 c-28 -71 -14 -863 14 -887 59 -48 91 -4 97 133 9 188 46
205 160 74 191 -219 205 -232 241 -218 59 22 40 86 -59 195 -190 209 -186 176
-36 274 102 66 131 96 126 128 -10 72 -65 58 -248 -64 l-178 -118 -10 252 c-9
238 -12 252 -52 258 -25 4 -48 -7 -55 -27z"/>
<path d="M1225 1218 c-263 -130 -212 -533 77 -596 85 -18 188 2 254 52 320
239 26 721 -331 544z m275 -133 c173 -155 6 -427 -207 -338 -144 60 -171 241
-51 342 83 69 178 68 258 -4z"/>
<path d="M1950 1233 c-310 -144 -213 -613 127 -616 161 -1 285 90 215 159 -25
26 -40 24 -119 -14 -190 -92 -362 87 -264 276 53 102 154 121 307 59 56 -23
68 -22 85 3 64 102 -202 202 -351 133z"/>
<path d="M3134 1219 c-257 -139 -203 -536 81 -600 129 -29 305 41 305 122 0
60 -45 66 -137 18 -99 -51 -195 -30 -265 57 l-42 54 262 6 262 5 0 77 c0 218
-269 368 -466 261z m301 -149 c67 -77 61 -80 -145 -77 -208 4 -206 3 -179 48
67 111 240 127 324 29z"/>
<path d="M3693 1247 c-32 -33 -14 -622 20 -635 66 -26 87 25 87 211 0 253 61
326 260 313 74 -5 90 0 96 33 18 85 -163 123 -284 61 -52 -28 -62 -28 -92 0
-36 32 -65 38 -87 17z"/>
<path d="M3907 669 c-7 -18 -2 -42 10 -54 29 -29 95 29 74 63 -20 32 -70 27
-84 -9z"/>
</g>
</svg>
