<?xml version="1.0" standalone="no"?>
<!DOCTYPE svg PUBLIC "-//W3C//DTD SVG 20010904//EN"
 "http://www.w3.org/TR/2001/REC-SVG-20010904/DTD/svg10.dtd">
<svg version="1.0" xmlns="http://www.w3.org/2000/svg"
width="60" height="60" viewBox="0 0 225.000000 225.000000"
 preserveAspectRatio="xMidYMid meet">
<metadata>
Created by potrace 1.10, written by Peter Selinger 2001-2011
</metadata>
<g transform="translate(0.000000,225.000000) scale(0.050000,-0.050000)"
fill="#66ecbc" stroke="none">
<path d="M1424 3660 c-454 -162 -829 -298 -834 -303 -10 -10 241 -2195 254
-2208 22 -22 1388 -774 1406 -774 87 -1 1410 774 1420 832 35 206 246 2144
234 2154 -8 7 -284 108 -614 225 -330 117 -699 248 -820 291 l-220 78 -826
-295z m1359 -1286 c276 -618 505 -1135 511 -1149 8 -19 -38 -25 -190 -25
l-200 0 -107 270 -107 270 -440 0 -440 0 -109 -270 -108 -270 -197 0 c-108 0
-196 5 -196 10 0 6 222 508 493 1115 271 608 506 1136 522 1174 36 87 -27 212
568 -1125z"/>
<path d="M2104 2434 c-79 -190 -144 -352 -144 -360 0 -8 131 -14 290 -14 160
0 290 7 290 15 0 13 -278 688 -288 700 -3 2 -69 -151 -148 -341z"/>
</g>
</svg>
