<?xml version="1.0" standalone="no"?>
<!DOCTYPE svg PUBLIC "-//W3C//DTD SVG 20010904//EN"
 "http://www.w3.org/TR/2001/REC-SVG-20010904/DTD/svg10.dtd">
<svg version="1.0" xmlns="http://www.w3.org/2000/svg"
 width="60" height="60" viewBox="0 0 300.000000 300.000000"
 preserveAspectRatio="xMidYMid meet">
<metadata>
Created by potrace 1.10, written by Peter Selinger 2001-2011
</metadata>
<g transform="translate(0.000000,300.000000) scale(0.100000,-0.100000)"
fill="#66ecbc" stroke="none">
<path d="M1440 2866 c-60 -16 -1080 -590 -1123 -631 -19 -18 -42 -50 -53 -71
-18 -37 -19 -68 -19 -664 l0 -625 22 -42 c37 -68 72 -95 253 -195 69 -38 338
-189 620 -348 140 -79 278 -150 305 -157 97 -26 64 -41 820 385 83 46 203 114
269 150 127 70 171 107 202 168 18 37 19 66 19 664 l0 625 -30 53 c-17 32 -46
65 -70 81 -102 70 -1055 596 -1100 608 -58 15 -57 15 -115 -1z m297 -683 c45
-16 107 -45 139 -64 53 -32 212 -175 203 -183 -2 -2 -64 -38 -137 -81 l-132
-77 -38 34 c-162 147 -424 133 -572 -29 -154 -169 -154 -404 1 -568 150 -159
410 -173 567 -31 l41 37 135 -77 135 -78 -23 -30 c-40 -54 -158 -146 -231
-182 -117 -57 -218 -77 -360 -71 -99 4 -134 10 -202 34 -115 42 -185 86 -272
174 -87 86 -132 156 -175 272 -29 78 -30 89 -30 237 0 148 1 159 30 237 43
116 88 186 175 272 84 84 156 131 257 168 102 38 136 42 277 39 114 -3 140 -7
212 -33z m483 -443 l0 -60 60 0 60 0 0 60 0 60 60 0 60 0 0 -60 0 -60 60 0 60
0 0 -60 0 -60 -60 0 -60 0 0 -60 0 -60 60 0 60 0 0 -60 0 -60 -60 0 -60 0 0
-60 0 -60 -60 0 -60 0 0 60 0 60 -60 0 -60 0 0 -60 0 -60 -60 0 -60 0 0 60 0
60 -60 0 -60 0 0 60 0 60 60 0 60 0 0 60 0 60 -60 0 -60 0 0 60 0 60 60 0 60
0 0 60 0 60 60 0 60 0 0 -60z m-133 -47 c-4 -3 -7 0 -7 7 0 7 3 10 7 7 3 -4 3
-10 0 -14z m150 0 c-4 -3 -7 0 -7 7 0 7 3 10 7 7 3 -4 3 -10 0 -14z"/>
<path d="M2220 1500 l0 -60 60 0 60 0 0 60 0 60 -60 0 -60 0 0 -60z"/>
</g>
</svg>
