<?xml version="1.0" standalone="no"?>
<!DOCTYPE svg PUBLIC "-//W3C//DTD SVG 20010904//EN"
 "http://www.w3.org/TR/2001/REC-SVG-20010904/DTD/svg10.dtd">
<svg version="1.0" xmlns="http://www.w3.org/2000/svg"
width="60" height="60" viewBox="0 0 259.000000 194.000000"
 preserveAspectRatio="xMidYMid meet">
<metadata>
Created by potrace 1.10, written by Peter Selinger 2001-2011
</metadata>
<g transform="translate(0.000000,194.000000) scale(0.050000,-0.050000)"
fill="#66ecbc" stroke="none">
<path d="M2036 3210 c-444 -112 -784 -429 -927 -862 -49 -150 -58 -163 -126
-188 -116 -42 -328 -268 -384 -410 -181 -457 75 -955 555 -1080 199 -52 2486
-44 2694 10 1205 308 955 2095 -288 2057 l-170 -5 -131 129 c-317 313 -810
454 -1223 349z m574 -277 c231 -62 491 -255 604 -448 27 -47 51 -85 53 -85 2
0 39 14 83 29 45 17 153 29 250 30 833 2 1063 -1120 304 -1476 l-114 -53
-1277 -6 -1277 -5 -103 47 c-331 153 -420 550 -186 827 64 76 238 167 317 167
50 0 56 7 56 66 0 587 685 1069 1290 907z"/>
<path d="M1920 2174 c-82 -28 -117 -109 -37 -86 163 47 221 30 245 -73 13 -55
12 -55 -67 -43 -92 15 -192 -19 -222 -73 -84 -158 78 -295 235 -200 61 37 66
37 84 5 24 -41 98 -6 83 39 -5 15 -14 99 -21 187 -20 255 -93 315 -300 244z
m210 -319 c-33 -111 -193 -156 -207 -59 -12 86 9 104 118 104 96 0 101 -3 89
-45z"/>
<path d="M3101 2174 c-148 -74 -122 -217 48 -274 121 -40 159 -89 101 -133
-40 -30 -137 -28 -217 4 -30 12 -35 6 -30 -33 6 -39 23 -51 97 -65 259 -50
383 205 140 287 -119 40 -140 55 -140 101 0 61 94 75 205 29 27 -11 35 -4 35
28 0 73 -141 106 -239 56z"/>
<path d="M2281 2155 c3 -136 139 -465 191 -465 55 0 57 5 96 186 43 207 50
205 102 -31 67 -303 137 -230 285 300 7 27 -2 35 -41 35 -47 0 -53 -12 -96
-190 -56 -234 -60 -234 -109 -5 -37 173 -42 185 -92 191 -50 6 -54 0 -86 -150
-54 -257 -59 -259 -112 -41 -42 177 -51 195 -93 195 -25 0 -46 -11 -45 -25z"/>
<path d="M3165 1536 c-77 -38 -49 -57 65 -43 134 15 152 -11 100 -145 -40
-106 -31 -129 28 -66 166 178 26 362 -193 254z"/>
<path d="M1740 1523 c0 -11 34 -46 75 -79 377 -297 970 -341 1382 -103 149 86
108 109 -85 48 -410 -130 -842 -103 -1208 75 -74 36 -141 69 -149 73 -8 3 -15
-3 -15 -14z"/>
</g>
</svg>
